# xmcd
#
# Track frame offsets:
#	150
#	14451
#	31590
#	47426
#	62580
#	78094
#	96698
#	111023
#	127466
#	146022
#	162264
#	178637
#	195847
#	212127
#	228233
#	257514
#
# Disc length: 3741 seconds
#
# Revision: 2
# Processed by: cddbd v1.5.2PL0 Copyright (c) Steve Scherf et al.
# Submitted via: audiograbber 1.83.01
#
DISCID=d20e9b10
DTITLE=All Star Karaoke - ASK-76 Country Hits Of The Year Volume 1 Disc 2
DYEAR=2007
DGENRE=Karaoke - Country
TTITLE0=Joe Nichols - Tequila Makes Her Clothes Fall Off
TTITLE1=Josh Turner - Would You Go With Me
TTITLE2=Josh Turner - Your Man
TTITLE3=Kenny Chesney - Living In Fast Forward
TTITLE4=Kenny Chesney - Summertime
TTITLE5=Little Big Town - Bring It On Home
TTITLE6=Montgomery Gentry - She Don't Tell Me To
TTITLE7=Rascal Flatts - Me and My Gang
TTITLE8=Rascal Flatts - My Wish
TTITLE9=Rascal Flatts - What Hurts The Most
TTITLE10=Rodney Atkins - If You're Going Through Hell (Before The Devil Even Kn
TTITLE10=ows)
TTITLE11=Steve Holy - Brand New Girlfriend
TTITLE12=Wreckers, The - Leave The Pieces
TTITLE13=Tim McGraw - My Old Friend
TTITLE14=Trace Adkins - Honky Tonk Badonkadonk
TTITLE15=Data Track - Data Track
EXTD=karaoke
EXTT0=
EXTT1=
EXTT2=
EXTT3=
EXTT4=
EXTT5=
EXTT6=
EXTT7=
EXTT8=
EXTT9=
EXTT10=
EXTT11=
EXTT12=
EXTT13=
EXTT14=
EXTT15=
PLAYORDER=
